# xmcd CD database file
# Copyright (C) 1993-1996 Ti Kan
#
# Track frame offsets:
#  150
#  28675
#  46999
#  62096
#  77471
#  91687
#  109791
#  124822
#  142653
#  158947
#  175907
#  194322
#  211434
#  224401
#  239600
#  256606
#
# Disc length: 3716 seconds
#
# Revision: 3
# Processed by: cddbd v1.5.1PL0 Copyright (c) Steve Scherf et al.
# Submitted via: Advanced CD Ripper Pro 2.0
#
DISCID=d60e8210
DTITLE=Marco Brasil - Festa de Rodeio
DYEAR=1997
DGENRE=Country
TTITLE0=Orquetra da Terra - Abertura - Rei do gado/Oração de Rodeio - Jayne
TTITLE1=Leandro e Leonardo - Festa de Rodeio
TTITLE2=Chico Rey e Paraná - Canarinho Prisioneiro
TTITLE3=Sérgio Reis - Hoje Eu Não Posso Ir
TTITLE4=Felipe e Falcão - Quem Quer Verdura
TTITLE5=Gian e Giovani - Faz de Conta (L'Italiano)
TTITLE6=João Paulo e Daniel - Fazenda São Francisco (Maior Proeza)
TTITLE7=Rick e Renner - De Mal com Você
TTITLE8=Matogrosso e Mathias - Cabelo Loiro
TTITLE9=Gaúcho da Fronteira - Tão Pedindo Um Vanerão
TTITLE10=Milionário e José Rico - Viva a Vida !
TTITLE11=Chrystian e Ralf - De Cara Cheia
TTITLE12=Goiano e Paranaense - A Viola e a Saudade
TTITLE13=Bruno e Marrone - Goiás é Mais
TTITLE14=Cézar e Paulinho - Faz De Conta Que Eu Sou Ele
TTITLE15=Marco Brasil - Encerramento/Adeus Papai, Adeus Mamãe - Chrystian e Ralf - Caminheiro - Orquestra da Terra - Rei do Gado
EXTD=
EXTT0=
EXTT1=
EXTT2=
EXTT3=
EXTT4=
EXTT5=
EXTT6=
EXTT7=
EXTT8=
EXTT9=
EXTT10=
EXTT11=
EXTT12=
EXTT13=
EXTT14=
EXTT15=
PLAYORDER=
